<svg width="390" height="500" viewBox="0 0 390 500" fill="none" xmlns="http://www.w3.org/2000/svg">
<path d="M197.271 212.76C199.635 230.198 215.161 234.958 215.161 234.958C212.698 246.271 222.74 253.198 226.839 254.167C230.932 255.135 238.12 248.547 238.12 248.547C238.12 248.547 235.698 252.375 236.938 261.755C238.177 271.135 222.792 273.979 206.292 265.089C189.792 256.203 181.057 243.75 181.057 243.75C190.625 232.604 190.719 211.208 190.719 211.208L197.271 212.76Z" fill="#1DB954"/>
<mask id="mask0_7_1546" style="mask-type:luminance" maskUnits="userSpaceOnUse" x="139" y="144" width="102" height="87">
<path d="M139.641 144H241V230.667H139.641V144Z" fill="white"/>
</mask>
<g mask="url(#mask0_7_1546)">
<path d="M149.714 186.135C150.286 183.984 151.031 181.854 152.073 179.87C153.042 177.844 154.318 175.984 155.661 174.182C157.057 172.422 158.604 170.776 160.333 169.333C162.042 167.885 163.938 166.62 166.005 165.766C164.281 167.172 162.74 168.724 161.229 170.286C159.74 171.875 158.307 173.5 156.984 175.219C155.672 176.938 154.38 178.688 153.214 180.526C152.01 182.349 150.896 184.234 149.714 186.135ZM167.318 160.234C170.24 157.37 173.839 155.24 177.646 153.729C179.562 152.995 181.542 152.422 183.557 152.052C185.573 151.682 187.635 151.479 189.677 151.688C187.693 152.172 185.776 152.724 183.875 153.318C181.979 153.938 180.094 154.552 178.255 155.297C176.411 156.021 174.578 156.786 172.776 157.635L167.318 160.234ZM179.094 167.135C180.63 166.214 182.214 165.354 183.828 164.557C185.495 163.896 187.141 163.109 188.875 162.604C192.318 161.469 195.917 160.813 199.557 160.531C203.198 160.365 206.88 160.573 210.432 161.427C213.964 162.271 217.448 163.615 220.286 165.859C216.953 164.542 213.516 163.818 210.078 163.359C206.63 162.932 203.167 162.844 199.708 163.052C197.984 163.193 196.25 163.302 194.536 163.609C192.802 163.776 191.109 164.208 189.385 164.51C187.661 164.833 185.984 165.349 184.25 165.724C182.547 166.188 180.859 166.729 179.094 167.135ZM211.172 156.792L209.286 156.552C208.661 156.453 208.031 156.401 207.391 156.427L203.568 156.432C202.922 156.401 202.286 156.438 201.651 156.526L199.734 156.729C198.464 156.891 197.172 156.958 195.896 157.141C193.37 157.688 190.802 158.063 188.266 158.651C185.74 159.286 183.229 160.005 180.646 160.578C183.026 159.474 185.474 158.51 187.911 157.464C190.396 156.583 192.974 155.927 195.526 155.203C196.823 154.906 198.151 154.745 199.464 154.536L201.448 154.234C202.104 154.109 202.771 154.042 203.443 154.047L207.474 153.964C208.146 153.922 208.818 153.969 209.49 154.063L211.505 154.286C216.844 154.984 222.172 156.901 226.401 160.339C227.453 161.203 228.505 162.052 229.37 163.099C230.323 164.063 231.104 165.161 231.88 166.255C233.297 168.521 234.547 170.911 235.135 173.49C232.906 168.724 229.365 164.792 225.234 161.917C221.073 159.036 216.182 157.401 211.172 156.792ZM145.62 192.448C145.62 192.448 143.927 201.422 151.401 211.271C158.875 221.115 160.073 230.052 160.073 230.052C160.073 230.052 162.641 222.875 167.182 218.323C167.182 218.323 163.927 208.323 165.547 201.495C167.161 194.667 178.828 191.083 178.828 191.083L177.286 195.771C191.286 182.932 211.823 189.385 211.823 189.385C205.516 180.099 214.161 171.625 221.49 172.349C228.818 173.073 239.047 182.854 239.047 182.854C239.047 182.854 250.339 155.891 215 147.083C179.656 138.276 148.286 149.234 140.193 192.531L144.583 188.307L139.641 198.818L145.62 192.448Z" fill="#1DB954"/>
</g>
<path d="M167.13 203.734C167.573 201.797 168.474 199.719 170.297 198.464C172.141 197.208 174.307 197.073 176.25 197.349C178.219 197.672 180 198.51 181.625 199.5C183.25 200.5 184.714 201.729 185.984 203.109C183.057 200.828 179.672 198.88 176.099 198.625C174.365 198.516 172.531 198.839 171.333 199.833C170.099 200.823 169.417 202.448 169.141 204.141C168.599 207.568 169.25 211.255 170.531 214.531C170.859 215.354 171.245 216.141 171.651 216.917C172.094 217.646 172.552 218.396 173.109 219.13C174.187 220.589 175.359 221.99 176.615 223.276C177.865 224.568 179.208 225.786 180.646 226.672C181.354 227.115 182.109 227.448 182.76 227.557C183.427 227.641 183.812 227.547 184.193 227.141C184.599 226.755 184.859 225.974 185.068 225.172C185.24 224.391 185.339 223.599 185.177 222.88C184.943 221.438 183.849 220.229 182.344 219.63C181.604 219.323 180.786 219.151 180.005 219.167C179.807 219.151 179.625 219.193 179.437 219.214L179.047 219.26C178.885 219.271 178.719 219.307 178.557 219.292C177.901 219.281 177.328 219.047 176.818 218.786C174.901 217.583 173.906 215.813 173.083 214.057C172.328 212.266 171.807 210.365 171.839 208.396C171.885 207.443 172.047 206.354 172.828 205.63C173.63 204.906 174.75 205.031 175.604 205.307C174.703 205.146 173.651 205.229 173.109 205.911C172.547 206.557 172.479 207.51 172.536 208.385C172.698 210.172 173.37 211.917 174.24 213.484C175.094 215.031 176.25 216.568 177.615 217.255C177.953 217.391 178.276 217.479 178.562 217.464C178.635 217.474 178.703 217.438 178.776 217.432L178.88 217.422L179.083 217.38C179.354 217.333 179.635 217.271 179.906 217.266C180.995 217.188 182.057 217.354 183.073 217.703C184.078 218.057 185.057 218.609 185.849 219.422C186.641 220.234 187.198 221.302 187.437 222.411C187.714 223.531 187.609 224.646 187.417 225.693C187.172 226.693 186.932 227.797 186.047 228.807C185.635 229.313 185.01 229.745 184.339 229.943C183.667 230.151 182.984 230.167 182.38 230.078C181.187 229.88 180.203 229.406 179.318 228.88C177.552 227.813 176.089 226.495 174.724 225.109C173.38 223.703 172.156 222.208 171.026 220.641C170.458 219.875 169.937 219.021 169.422 218.141C168.969 217.255 168.531 216.354 168.208 215.422C167.536 213.557 167.089 211.635 166.87 209.677C166.646 207.719 166.677 205.714 167.13 203.734Z" fill="#1DB954"/>
<path d="M81.9371 316.925C79.1298 316.925 76.6766 316.373 74.5829 315.279C72.4839 314.17 70.8589 312.613 69.7079 310.613C68.5516 308.602 67.9787 306.248 67.9787 303.55V290.363C67.9787 289.154 67.8954 288.274 67.7287 287.717C67.5621 287.149 67.3329 286.759 67.0412 286.55C66.76 286.342 66.4423 286.191 66.0829 286.092C65.6766 285.956 65.4266 285.738 65.3329 285.446C65.2496 285.154 65.2339 284.884 65.2912 284.634C65.3589 284.373 65.4058 284.238 65.4371 284.238C65.7131 284.269 66.0725 284.3 66.5204 284.342C66.9787 284.373 67.3746 284.384 67.7079 284.384H76.2704C76.7548 284.384 77.3381 284.373 78.0204 284.342C78.6975 284.3 79.2548 284.269 79.6871 284.238C79.7391 284.238 79.7964 284.373 79.8537 284.634C79.9214 284.884 79.885 285.154 79.7496 285.446C79.6089 285.738 79.2339 285.956 78.6246 286.092C78.0829 286.191 77.5881 286.342 77.1454 286.55C76.7131 286.759 76.3746 287.149 76.1246 287.717C75.885 288.274 75.7704 289.154 75.7704 290.363V303.009C75.7704 306.066 76.5673 308.503 78.1662 310.321C79.7756 312.128 81.9162 313.029 84.5829 313.029C87.0829 313.029 89.0829 312.113 90.5829 310.279C92.0829 308.436 92.8329 305.967 92.8329 302.884V290.363C92.8329 289.154 92.6975 288.274 92.4371 287.717C92.1871 287.149 91.8433 286.759 91.4162 286.55C90.9996 286.342 90.51 286.191 89.9579 286.092C89.3589 285.956 88.9891 285.738 88.8537 285.446C88.7131 285.154 88.6766 284.884 88.7496 284.634C88.8329 284.373 88.885 284.238 88.9162 284.238C89.3433 284.269 89.9006 284.3 90.5829 284.342C91.26 284.373 91.8433 284.384 92.3329 284.384H94.9996C95.3329 284.384 95.7183 284.373 96.1662 284.342C96.6246 284.3 96.9891 284.269 97.2704 284.238C97.2964 284.238 97.3381 284.373 97.3954 284.634C97.4631 284.884 97.4475 285.154 97.3537 285.446C97.2704 285.738 97.0256 285.956 96.6246 286.092C96.26 286.191 95.9371 286.342 95.6454 286.55C95.3641 286.759 95.1454 287.149 94.9787 287.717C94.8121 288.274 94.7287 289.154 94.7287 290.363V302.967C94.7287 305.774 94.2079 308.233 93.1662 310.342C92.1246 312.441 90.6506 314.066 88.7496 315.217C86.8433 316.352 84.5725 316.925 81.9371 316.925Z" fill="#1DB954"/>
<path d="M100.987 310.863L103.57 302.738C103.57 302.738 103.685 302.748 103.924 302.759C104.174 302.774 104.424 302.894 104.674 303.113C104.935 303.321 105.07 303.738 105.07 304.363C104.846 308.061 105.325 310.748 106.508 312.425C107.685 314.092 109.654 314.925 112.404 314.925C113.305 314.925 114.2 314.779 115.091 314.488C115.992 314.186 116.742 313.67 117.341 312.946C117.95 312.212 118.258 311.227 118.258 309.988C118.258 308.42 117.654 307.066 116.445 305.925C115.237 304.774 113.695 303.623 111.82 302.467C110.029 301.316 108.393 300.206 106.924 299.134C105.466 298.066 104.31 296.967 103.466 295.842C102.617 294.706 102.195 293.467 102.195 292.134C102.195 290.54 102.716 289.102 103.758 287.821C104.81 286.529 106.289 285.509 108.195 284.759C110.096 283.998 112.362 283.613 114.987 283.613C116.247 283.613 117.549 283.748 118.883 284.009C120.216 284.259 121.414 284.623 122.487 285.092C123.555 285.55 124.367 286.102 124.924 286.738C125.492 287.378 125.659 288.087 125.424 288.863L123.154 296.217C123.154 296.217 123.008 296.217 122.716 296.217C122.424 296.217 122.138 296.123 121.862 295.925C121.596 295.717 121.466 295.3 121.466 294.675C121.716 291.342 121.284 288.988 120.174 287.613C119.075 286.238 117.409 285.55 115.174 285.55C113.508 285.55 112.242 285.899 111.383 286.592C110.518 287.29 110.091 288.17 110.091 289.238C110.091 290.227 110.331 291.071 110.82 291.779C111.305 292.477 112.013 293.149 112.945 293.8C113.888 294.441 115.039 295.186 116.404 296.029C118.154 297.113 119.758 298.206 121.216 299.3C122.685 300.384 123.867 301.566 124.758 302.842C125.643 304.108 126.091 305.602 126.091 307.321C126.091 310.279 124.852 312.623 122.383 314.342C119.924 316.066 116.534 316.925 112.216 316.925C110.674 316.925 109.185 316.748 107.758 316.404C106.325 316.061 105.055 315.602 103.945 315.029C102.846 314.446 102.018 313.795 101.466 313.071C100.924 312.352 100.763 311.613 100.987 310.863Z" fill="#1DB954"/>
<path d="M146.213 316.113H132.213C131.822 316.113 131.338 316.123 130.754 316.154C130.181 316.18 129.733 316.217 129.4 316.259C129.369 316.259 129.317 316.134 129.233 315.884C129.161 315.623 129.181 315.337 129.296 315.029C129.421 314.727 129.723 314.509 130.213 314.384C130.671 314.274 131.077 314.123 131.442 313.925C131.801 313.717 132.077 313.337 132.275 312.779C132.468 312.227 132.567 311.342 132.567 310.134V290.363C132.567 289.154 132.468 288.274 132.275 287.717C132.077 287.149 131.801 286.759 131.442 286.55C131.077 286.342 130.671 286.191 130.213 286.092C129.723 285.956 129.421 285.738 129.296 285.446C129.181 285.154 129.161 284.884 129.233 284.634C129.317 284.373 129.369 284.238 129.4 284.238C129.733 284.269 130.181 284.3 130.754 284.342C131.338 284.373 131.822 284.384 132.213 284.384H145.983C148.218 284.384 149.905 284.274 151.046 284.05C152.181 283.816 153.036 283.712 153.608 283.738C154.301 283.738 154.634 284.149 154.608 284.967C154.483 286.54 154.468 288.186 154.567 289.904C154.676 291.628 154.9 293.477 155.233 295.446C155.233 295.446 154.994 295.446 154.525 295.446C154.067 295.446 153.588 295.342 153.088 295.134C152.588 294.915 152.275 294.467 152.15 293.8C151.858 291.79 151.572 290.29 151.296 289.3C151.015 288.316 150.64 287.628 150.171 287.238C149.838 286.936 149.358 286.727 148.733 286.613C148.108 286.488 147.254 286.404 146.171 286.363C145.088 286.311 143.634 286.279 141.817 286.279C141.275 286.279 140.9 286.436 140.692 286.738C140.483 287.045 140.379 287.441 140.379 287.925V297.071C140.379 297.352 140.442 297.649 140.567 297.967C140.702 298.274 140.973 298.425 141.379 298.425C141.556 298.425 141.968 298.415 142.608 298.384C143.259 298.358 143.921 298.331 144.588 298.3C145.129 298.233 145.53 298.128 145.796 297.988C146.072 297.837 146.301 297.529 146.483 297.071C146.661 296.613 146.864 295.92 147.088 294.988C147.197 294.503 147.421 294.217 147.754 294.134C148.088 294.04 148.405 294.024 148.713 294.092C149.015 294.149 149.171 294.175 149.171 294.175C149.015 295.233 148.931 296.399 148.921 297.675C148.905 298.941 148.942 300.196 149.025 301.446C149.119 302.696 149.244 303.821 149.4 304.821C149.4 304.821 149.244 304.831 148.942 304.842C148.634 304.858 148.322 304.816 148.004 304.717C147.681 304.608 147.468 304.373 147.358 304.009C147.051 302.956 146.801 302.186 146.608 301.696C146.411 301.212 146.171 300.884 145.879 300.717C145.588 300.55 145.171 300.456 144.629 300.425C143.989 300.373 143.343 300.342 142.692 300.342C142.051 300.342 141.614 300.342 141.379 300.342C140.973 300.342 140.702 300.503 140.567 300.821C140.442 301.128 140.379 301.42 140.379 301.696V312.446C140.379 313.321 140.515 313.837 140.796 313.988C141.088 314.144 141.655 314.217 142.504 314.217C145.072 314.217 146.947 314.165 148.129 314.05C149.306 313.941 150.181 313.706 150.754 313.342C151.088 313.108 151.369 312.779 151.608 312.363C151.858 311.936 152.093 311.269 152.317 310.363C152.536 309.446 152.786 308.165 153.067 306.509C153.192 305.998 153.426 305.628 153.775 305.404C154.119 305.17 154.504 305.024 154.921 304.967C155.348 304.899 155.702 304.894 155.983 304.946C156.275 304.988 156.421 305.024 156.421 305.05C156.114 307.009 155.905 308.831 155.796 310.509C155.697 312.191 155.692 313.816 155.775 315.384C155.817 315.873 155.718 316.222 155.483 316.446C155.259 316.68 154.983 316.779 154.65 316.738C154.317 316.738 153.848 316.68 153.254 316.571C152.671 316.472 151.817 316.368 150.692 316.259C149.577 316.16 148.088 316.113 146.213 316.113Z" fill="#1DB954"/>
<path d="M162.401 316.113C162.011 316.113 161.526 316.123 160.943 316.154C160.37 316.18 159.906 316.196 159.547 316.196C159.516 316.196 159.469 316.081 159.401 315.842C159.344 315.608 159.37 315.337 159.484 315.029C159.609 314.727 159.912 314.509 160.401 314.384C160.859 314.274 161.266 314.123 161.63 313.925C161.99 313.717 162.266 313.337 162.464 312.779C162.656 312.227 162.755 311.342 162.755 310.134V290.363C162.755 289.154 162.656 288.274 162.464 287.717C162.266 287.149 161.99 286.759 161.63 286.55C161.266 286.342 160.859 286.191 160.401 286.092C159.912 285.956 159.609 285.738 159.484 285.446C159.37 285.154 159.344 284.894 159.401 284.654C159.469 284.404 159.516 284.279 159.547 284.279C159.906 284.279 160.365 284.3 160.922 284.342C161.474 284.373 161.953 284.384 162.359 284.384C163.203 284.384 164.193 284.363 165.318 284.321C166.453 284.269 167.615 284.217 168.797 284.175C169.974 284.134 171.089 284.102 172.13 284.071C173.172 284.029 174.037 284.009 174.734 284.009C177.662 284.009 180.016 284.358 181.797 285.05C183.589 285.748 184.886 286.644 185.693 287.738C186.511 288.821 186.922 289.983 186.922 291.217C186.922 295.634 184.172 298.149 178.672 298.759C181.906 298.899 184.516 299.634 186.505 300.967C188.505 302.3 189.505 304.295 189.505 306.946C189.505 309.977 188.261 312.316 185.776 313.967C183.302 315.608 179.682 316.425 174.922 316.425C172.74 316.425 170.578 316.373 168.443 316.279C166.318 316.196 164.302 316.139 162.401 316.113ZM172.193 298.154L173.589 298.029C175.172 297.753 176.359 297.217 177.151 296.425C177.953 295.623 178.359 294.233 178.359 292.259C178.359 290.79 178.13 289.602 177.672 288.696C177.224 287.779 176.641 287.108 175.922 286.675C175.214 286.233 174.484 286.009 173.734 286.009L171.922 285.967C171.349 285.967 170.99 286.108 170.839 286.384C170.682 286.649 170.609 287.128 170.609 287.821V312.613C170.609 313.378 170.714 313.894 170.922 314.154C171.13 314.404 171.578 314.529 172.276 314.529H173.818C174.995 314.529 176.078 314.279 177.068 313.779C178.052 313.279 178.839 312.498 179.422 311.425C180.005 310.358 180.297 308.977 180.297 307.279C180.297 304.795 179.776 302.977 178.734 301.821C177.693 300.654 175.922 300.061 173.422 300.029L171.88 299.967C171.849 299.967 171.781 299.842 171.672 299.592C171.557 299.331 171.526 299.061 171.568 298.779C171.62 298.488 171.828 298.279 172.193 298.154Z" fill="#1DB954"/>
<path d="M223.782 314.384C224.116 314.509 224.314 314.727 224.387 315.029C224.47 315.337 224.48 315.623 224.428 315.884C224.387 316.134 224.35 316.259 224.324 316.259C224.116 316.217 223.808 316.18 223.407 316.154C223.017 316.123 222.704 316.113 222.47 316.113H213.491C213.001 316.113 212.418 316.123 211.741 316.154C211.058 316.18 210.512 316.217 210.095 316.259C210.053 316.259 209.996 316.134 209.928 315.884C209.855 315.623 209.887 315.337 210.012 315.029C210.147 314.727 210.522 314.509 211.137 314.384C211.678 314.274 212.126 314.128 212.491 313.946C212.85 313.753 213.053 313.394 213.095 312.863C213.147 312.337 212.933 311.529 212.449 310.446L211.72 308.634C211.595 308.483 211.449 308.394 211.282 308.363C211.116 308.337 210.928 308.321 210.72 308.321C208.605 308.295 206.584 308.29 204.657 308.3C202.741 308.316 200.709 308.321 198.574 308.321C198.116 308.321 197.793 308.488 197.616 308.821V308.717L196.949 310.404C196.491 311.519 196.293 312.337 196.366 312.863C196.449 313.394 196.699 313.753 197.116 313.946C197.543 314.128 198.043 314.274 198.616 314.384C199.308 314.509 199.73 314.727 199.887 315.029C200.038 315.337 200.074 315.623 199.991 315.884C199.918 316.134 199.855 316.259 199.803 316.259C199.345 316.217 198.725 316.18 197.949 316.154C197.183 316.123 196.543 316.113 196.032 316.113H193.178C192.897 316.113 192.564 316.123 192.178 316.154C191.788 316.18 191.47 316.217 191.22 316.259C191.189 316.259 191.157 316.134 191.116 315.884C191.074 315.623 191.084 315.337 191.157 315.029C191.241 314.727 191.449 314.509 191.782 314.384C192.1 314.274 192.413 314.128 192.72 313.946C193.022 313.753 193.35 313.394 193.699 312.863C194.043 312.337 194.449 311.529 194.907 310.446L203.116 290.134C203.324 289.649 203.387 289.123 203.303 288.55C203.23 287.983 203.121 287.519 202.97 287.154L202.887 286.925C202.704 286.524 202.538 286.274 202.387 286.175C202.23 286.066 202.001 285.967 201.699 285.884C201.308 285.759 201.064 285.587 200.97 285.363C200.887 285.128 200.876 284.904 200.949 284.696C201.032 284.488 201.116 284.384 201.199 284.384H206.053C207.262 284.384 208.168 284.446 208.782 284.571C209.407 284.686 209.892 284.967 210.241 285.425C210.584 285.873 210.959 286.592 211.366 287.592L220.741 310.446C221.199 311.529 221.6 312.337 221.949 312.863C222.293 313.394 222.616 313.753 222.907 313.946C223.209 314.128 223.501 314.274 223.782 314.384ZM210.095 306.321C210.246 306.321 210.366 306.253 210.449 306.113C210.543 305.977 210.574 305.852 210.532 305.738L204.699 291.363L198.887 305.55H198.928C198.845 305.759 198.834 305.946 198.907 306.113C198.991 306.279 199.137 306.363 199.345 306.363C201.272 306.394 203.058 306.399 204.699 306.384C206.35 306.373 208.147 306.352 210.095 306.321Z" fill="#1DB954"/>
<path d="M249.969 303.321C251.036 306.17 252.156 308.498 253.323 310.3C254.5 312.092 255.635 313.503 256.719 314.529C257.812 315.561 258.724 316.342 259.448 316.884C259.364 317.243 259.135 317.576 258.76 317.884C258.396 318.186 257.765 318.321 256.864 318.279C254.781 317.915 252.687 316.993 250.594 315.509C248.495 314.009 246.521 312.081 244.677 309.717C242.828 307.358 241.208 304.733 239.823 301.842L238.739 301.613C238.614 301.462 238.578 301.279 238.635 301.071C238.703 300.852 238.916 300.727 239.281 300.696L240.781 300.654C243.073 300.42 244.698 299.717 245.656 298.55C246.625 297.384 247.114 295.67 247.114 293.404C247.114 290.837 246.5 288.962 245.281 287.779C244.057 286.602 242.479 285.998 240.552 285.967H239.01C238.427 285.967 238.021 286.087 237.802 286.321C237.578 286.545 237.469 287.003 237.469 287.696V310.134C237.469 311.342 237.573 312.227 237.781 312.779C237.989 313.337 238.265 313.717 238.614 313.925C238.958 314.123 239.364 314.274 239.823 314.384C240.333 314.509 240.64 314.727 240.739 315.029C240.849 315.337 240.87 315.623 240.802 315.884C240.745 316.134 240.703 316.259 240.677 316.259C240.344 316.217 239.89 316.18 239.323 316.154C238.75 316.123 238.265 316.113 237.864 316.113H229.26C228.87 316.113 228.385 316.123 227.802 316.154C227.229 316.18 226.781 316.217 226.448 316.259C226.416 316.259 226.364 316.134 226.281 315.884C226.208 315.623 226.229 315.337 226.344 315.029C226.469 314.727 226.771 314.509 227.26 314.384C227.719 314.274 228.125 314.123 228.489 313.925C228.849 313.717 229.125 313.337 229.323 312.779C229.515 312.227 229.614 311.342 229.614 310.134V290.363C229.614 289.154 229.515 288.274 229.323 287.717C229.125 287.149 228.849 286.759 228.489 286.55C228.125 286.342 227.719 286.191 227.26 286.092C226.771 285.956 226.469 285.738 226.344 285.446C226.229 285.154 226.203 284.894 226.26 284.654C226.328 284.404 226.375 284.279 226.406 284.279C226.765 284.279 227.229 284.3 227.802 284.342C228.385 284.373 228.87 284.384 229.26 284.384C231.161 284.358 233.177 284.3 235.302 284.217C237.437 284.123 239.599 284.071 241.781 284.071C251.265 284.071 256.01 287.092 256.01 293.134C256.01 295.858 255.031 297.962 253.073 299.446C251.125 300.92 248.37 301.748 244.802 301.925L244.635 302.113C245.286 302.144 245.953 302.17 246.635 302.196C247.312 302.227 248.021 302.253 248.76 302.279C249.146 302.279 249.416 302.363 249.573 302.529C249.724 302.696 249.854 302.962 249.969 303.321Z" fill="#1DB954"/>
<path d="M263.664 316.113C263.274 316.113 262.789 316.123 262.206 316.154C261.633 316.18 261.169 316.196 260.81 316.196C260.779 316.196 260.732 316.081 260.664 315.842C260.607 315.608 260.633 315.337 260.748 315.029C260.873 314.727 261.175 314.509 261.664 314.384C262.123 314.274 262.529 314.123 262.893 313.925C263.253 313.717 263.529 313.337 263.727 312.779C263.919 312.227 264.018 311.342 264.018 310.134V290.363C264.018 289.154 263.919 288.274 263.727 287.717C263.529 287.149 263.253 286.759 262.893 286.55C262.529 286.342 262.123 286.191 261.664 286.092C261.175 285.956 260.873 285.738 260.748 285.446C260.633 285.154 260.607 284.894 260.664 284.654C260.732 284.404 260.779 284.279 260.81 284.279C261.169 284.279 261.628 284.3 262.185 284.342C262.737 284.373 263.216 284.384 263.623 284.384C264.466 284.384 265.456 284.363 266.581 284.321C267.716 284.269 268.878 284.217 270.06 284.175C271.237 284.134 272.352 284.102 273.393 284.071C274.435 284.029 275.3 284.009 275.998 284.009C278.925 284.009 281.279 284.358 283.06 285.05C284.852 285.748 286.149 286.644 286.956 287.738C287.774 288.821 288.185 289.983 288.185 291.217C288.185 295.634 285.435 298.149 279.935 298.759C283.169 298.899 285.779 299.634 287.768 300.967C289.768 302.3 290.768 304.295 290.768 306.946C290.768 309.977 289.524 312.316 287.039 313.967C284.565 315.608 280.945 316.425 276.185 316.425C274.003 316.425 271.841 316.373 269.706 316.279C267.581 316.196 265.565 316.139 263.664 316.113ZM273.456 298.154L274.852 298.029C276.435 297.753 277.623 297.217 278.414 296.425C279.216 295.623 279.623 294.233 279.623 292.259C279.623 290.79 279.393 289.602 278.935 288.696C278.487 287.779 277.904 287.108 277.185 286.675C276.477 286.233 275.748 286.009 274.998 286.009L273.185 285.967C272.612 285.967 272.253 286.108 272.102 286.384C271.945 286.649 271.873 287.128 271.873 287.821V312.613C271.873 313.378 271.977 313.894 272.185 314.154C272.393 314.404 272.841 314.529 273.539 314.529H275.081C276.258 314.529 277.341 314.279 278.331 313.779C279.315 313.279 280.102 312.498 280.685 311.425C281.268 310.358 281.56 308.977 281.56 307.279C281.56 304.795 281.039 302.977 279.998 301.821C278.956 300.654 277.185 300.061 274.685 300.029L273.143 299.967C273.112 299.967 273.044 299.842 272.935 299.592C272.82 299.331 272.789 299.061 272.831 298.779C272.883 298.488 273.091 298.279 273.456 298.154Z" fill="#1DB954"/>
<path d="M325.045 314.384C325.379 314.509 325.577 314.727 325.65 315.029C325.733 315.337 325.743 315.623 325.691 315.884C325.65 316.134 325.613 316.259 325.587 316.259C325.379 316.217 325.071 316.18 324.67 316.154C324.28 316.123 323.967 316.113 323.733 316.113H314.754C314.264 316.113 313.681 316.123 313.004 316.154C312.321 316.18 311.775 316.217 311.358 316.259C311.316 316.259 311.259 316.134 311.191 315.884C311.118 315.623 311.15 315.337 311.275 315.029C311.41 314.727 311.785 314.509 312.4 314.384C312.941 314.274 313.389 314.128 313.754 313.946C314.113 313.753 314.316 313.394 314.358 312.863C314.41 312.337 314.196 311.529 313.712 310.446L312.983 308.634C312.858 308.483 312.712 308.394 312.545 308.363C312.379 308.337 312.191 308.321 311.983 308.321C309.868 308.295 307.847 308.29 305.92 308.3C304.004 308.316 301.972 308.321 299.837 308.321C299.379 308.321 299.056 308.488 298.879 308.821V308.717L298.212 310.404C297.754 311.519 297.556 312.337 297.629 312.863C297.712 313.394 297.962 313.753 298.379 313.946C298.806 314.128 299.306 314.274 299.879 314.384C300.571 314.509 300.993 314.727 301.15 315.029C301.301 315.337 301.337 315.623 301.254 315.884C301.181 316.134 301.118 316.259 301.066 316.259C300.608 316.217 299.988 316.18 299.212 316.154C298.446 316.123 297.806 316.113 297.295 316.113H294.441C294.16 316.113 293.827 316.123 293.441 316.154C293.051 316.18 292.733 316.217 292.483 316.259C292.452 316.259 292.42 316.134 292.379 315.884C292.337 315.623 292.347 315.337 292.42 315.029C292.504 314.727 292.712 314.509 293.045 314.384C293.363 314.274 293.676 314.128 293.983 313.946C294.285 313.753 294.613 313.394 294.962 312.863C295.306 312.337 295.712 311.529 296.17 310.446L304.379 290.134C304.587 289.649 304.65 289.123 304.566 288.55C304.493 287.983 304.384 287.519 304.233 287.154L304.15 286.925C303.967 286.524 303.801 286.274 303.65 286.175C303.493 286.066 303.264 285.967 302.962 285.884C302.571 285.759 302.327 285.587 302.233 285.363C302.15 285.128 302.139 284.904 302.212 284.696C302.295 284.488 302.379 284.384 302.462 284.384H307.316C308.525 284.384 309.431 284.446 310.045 284.571C310.67 284.686 311.155 284.967 311.504 285.425C311.847 285.873 312.222 286.592 312.629 287.592L322.004 310.446C322.462 311.529 322.863 312.337 323.212 312.863C323.556 313.394 323.879 313.753 324.17 313.946C324.472 314.128 324.764 314.274 325.045 314.384ZM311.358 306.321C311.509 306.321 311.629 306.253 311.712 306.113C311.806 305.977 311.837 305.852 311.795 305.738L305.962 291.363L300.15 305.55H300.191C300.108 305.759 300.097 305.946 300.17 306.113C300.254 306.279 300.4 306.363 300.608 306.363C302.535 306.394 304.321 306.399 305.962 306.384C307.613 306.373 309.41 306.352 311.358 306.321Z" fill="#1DB954"/>
<path d="M93.9202 349.692C93.1806 349.692 92.4619 349.671 91.7535 349.629C91.0452 349.587 90.4098 349.567 89.8577 349.567L88.7327 349.608C88.7171 349.608 88.6962 349.567 88.6702 349.483C88.6546 349.389 88.6702 349.29 88.7119 349.192C88.7535 349.082 88.8629 349.004 89.0452 348.962C89.1962 348.921 89.3369 348.869 89.4619 348.796C89.5869 348.728 89.6806 348.598 89.7535 348.4C89.8212 348.192 89.8577 347.879 89.8577 347.462V340.483C89.8577 340.056 89.8212 339.744 89.7535 339.546C89.6806 339.353 89.5869 339.223 89.4619 339.15C89.3369 339.067 89.1962 339.014 89.0452 338.983C88.8629 338.931 88.7535 338.853 88.7119 338.754C88.6702 338.645 88.6546 338.546 88.6702 338.462C88.6962 338.379 88.7171 338.337 88.7327 338.337C88.8577 338.337 89.0139 338.348 89.2119 338.358C89.4202 338.358 89.5921 338.358 89.7327 338.358C89.9514 338.358 90.2379 338.358 90.5869 338.358C90.9306 338.348 91.3004 338.332 91.691 338.317C92.0921 338.306 92.4827 338.29 92.8577 338.275C93.2327 338.264 93.5452 338.254 93.7952 338.254C95.0712 338.254 96.1754 338.473 97.1077 338.9C98.0504 339.317 98.7796 339.936 99.2952 340.754C99.8056 341.561 100.066 342.556 100.066 343.733C100.066 344.915 99.816 345.957 99.316 346.858C98.816 347.749 98.1077 348.442 97.191 348.942C96.2744 349.442 95.1806 349.692 93.9202 349.692ZM93.5869 349.004C94.3629 349.004 95.0139 348.811 95.5452 348.421C96.0712 348.02 96.4671 347.473 96.7327 346.775C96.9931 346.082 97.1285 345.27 97.1285 344.337C97.1389 343.327 97.0035 342.41 96.7119 341.587C96.4306 340.77 96.0035 340.124 95.4202 339.65C94.8473 339.165 94.1285 338.921 93.2535 338.921C92.9879 338.921 92.816 338.973 92.7327 339.067C92.6598 339.165 92.6285 339.311 92.6285 339.504V348.358C92.6285 348.639 92.691 348.817 92.816 348.9C92.941 348.973 93.1962 349.004 93.5869 349.004Z" fill="#1DB954"/>
<path d="M102.338 347.462V340.483C102.338 340.056 102.301 339.744 102.234 339.546C102.161 339.353 102.067 339.223 101.942 339.15C101.817 339.067 101.676 339.014 101.525 338.983C101.343 338.931 101.234 338.853 101.192 338.754C101.15 338.645 101.14 338.546 101.171 338.462C101.197 338.369 101.218 338.317 101.234 338.317C101.343 338.332 101.494 338.348 101.692 338.358C101.9 338.358 102.072 338.358 102.213 338.358H105.254C105.39 338.358 105.556 338.358 105.754 338.358C105.963 338.348 106.129 338.332 106.254 338.317C106.265 338.317 106.28 338.369 106.296 338.462C106.322 338.546 106.317 338.645 106.275 338.754C106.234 338.853 106.119 338.931 105.942 338.983C105.786 339.014 105.65 339.067 105.525 339.15C105.4 339.223 105.296 339.353 105.213 339.546C105.14 339.744 105.109 340.056 105.109 340.483V347.462C105.109 347.879 105.14 348.192 105.213 348.4C105.296 348.598 105.4 348.728 105.525 348.796C105.65 348.869 105.786 348.921 105.942 348.962C106.119 349.004 106.234 349.082 106.275 349.192C106.317 349.29 106.322 349.389 106.296 349.483C106.28 349.567 106.265 349.608 106.254 349.608C106.129 349.608 105.963 349.598 105.754 349.587C105.556 349.572 105.39 349.567 105.254 349.567H102.213C102.072 349.567 101.9 349.572 101.692 349.587C101.494 349.598 101.343 349.608 101.234 349.608C101.218 349.608 101.197 349.567 101.171 349.483C101.14 349.389 101.15 349.29 101.192 349.192C101.234 349.082 101.343 349.004 101.525 348.962C101.676 348.921 101.817 348.869 101.942 348.796C102.067 348.728 102.161 348.598 102.234 348.4C102.301 348.192 102.338 347.879 102.338 347.462Z" fill="#1DB954"/>
<path d="M107.751 347.712L108.667 344.837C108.667 344.837 108.709 344.848 108.792 344.858C108.876 344.858 108.959 344.9 109.042 344.983C109.136 345.056 109.188 345.202 109.188 345.421C109.115 346.728 109.292 347.681 109.709 348.275C110.126 348.858 110.818 349.15 111.792 349.15C112.11 349.15 112.423 349.103 112.73 349.004C113.048 348.895 113.313 348.712 113.522 348.462C113.74 348.202 113.855 347.848 113.855 347.4C113.855 346.848 113.636 346.369 113.209 345.962C112.777 345.561 112.235 345.16 111.584 344.754C110.943 344.353 110.365 343.962 109.855 343.587C109.339 343.202 108.928 342.811 108.626 342.421C108.334 342.02 108.188 341.582 108.188 341.108C108.188 340.54 108.365 340.035 108.73 339.587C109.105 339.129 109.626 338.77 110.292 338.504C110.969 338.228 111.777 338.087 112.709 338.087C113.152 338.087 113.605 338.139 114.063 338.233C114.532 338.317 114.959 338.442 115.334 338.608C115.719 338.775 116.011 338.973 116.209 339.192C116.402 339.415 116.459 339.665 116.376 339.942L115.584 342.546C115.584 342.546 115.527 342.546 115.417 342.546C115.318 342.546 115.219 342.514 115.126 342.442C115.027 342.374 114.98 342.228 114.98 342.004C115.074 340.827 114.923 339.994 114.522 339.504C114.131 339.02 113.548 338.775 112.772 338.775C112.173 338.775 111.719 338.9 111.417 339.15C111.126 339.4 110.98 339.712 110.98 340.087C110.98 340.436 111.063 340.733 111.23 340.983C111.397 341.223 111.647 341.457 111.98 341.692C112.313 341.915 112.714 342.181 113.188 342.483C113.813 342.858 114.381 343.244 114.897 343.629C115.407 344.02 115.824 344.436 116.147 344.879C116.464 345.327 116.626 345.853 116.626 346.462C116.626 347.504 116.188 348.332 115.313 348.942C114.449 349.556 113.256 349.858 111.73 349.858C111.188 349.858 110.657 349.796 110.147 349.671C109.647 349.546 109.199 349.389 108.813 349.192C108.423 348.983 108.131 348.754 107.938 348.504C107.74 348.244 107.678 347.978 107.751 347.712Z" fill="#1DB954"/>
<path d="M127.794 340.567L126.669 343.671C126.653 343.712 126.57 343.744 126.419 343.754C126.278 343.754 126.137 343.707 126.002 343.608C125.861 343.514 125.804 343.327 125.835 343.046C125.877 342.619 125.866 342.192 125.814 341.775C125.757 341.358 125.658 340.978 125.523 340.629C125.299 340.103 124.971 339.692 124.544 339.4C124.111 339.098 123.648 338.942 123.148 338.942C122.283 338.942 121.611 339.249 121.127 339.858C120.637 340.473 120.398 341.306 120.398 342.358C120.398 343.233 120.528 344.02 120.794 344.712C121.054 345.395 121.408 345.978 121.856 346.462C122.299 346.952 122.799 347.317 123.356 347.567C123.924 347.817 124.502 347.942 125.085 347.942C125.486 347.942 125.924 347.879 126.398 347.754C126.866 347.619 127.34 347.337 127.814 346.921C127.856 346.91 127.919 346.936 128.002 347.004C128.085 347.077 128.132 347.181 128.148 347.317C128.174 347.457 128.106 347.639 127.939 347.858C127.632 348.223 127.236 348.556 126.752 348.858C126.278 349.165 125.752 349.41 125.169 349.587C124.585 349.764 123.981 349.858 123.356 349.858C122.59 349.858 121.866 349.723 121.189 349.462C120.507 349.202 119.903 348.827 119.377 348.337C118.846 347.837 118.429 347.244 118.127 346.546C117.82 345.837 117.669 345.056 117.669 344.192C117.669 343.358 117.82 342.577 118.127 341.837C118.445 341.103 118.882 340.457 119.439 339.9C119.991 339.332 120.637 338.889 121.377 338.567C122.127 338.249 122.939 338.087 123.814 338.087C124.408 338.087 124.971 338.16 125.502 338.296C126.028 338.421 126.481 338.603 126.856 338.837C127.241 339.061 127.523 339.327 127.689 339.629C127.866 339.921 127.903 340.233 127.794 340.567Z" fill="#1DB954"/>
<path d="M134.675 349.858C133.519 349.858 132.508 349.613 131.633 349.129C130.758 348.645 130.071 347.973 129.571 347.108C129.071 346.249 128.821 345.27 128.821 344.171C128.821 343.296 128.987 342.494 129.321 341.754C129.654 341.02 130.112 340.379 130.696 339.837C131.289 339.285 131.987 338.853 132.779 338.546C133.581 338.244 134.446 338.087 135.362 338.087C136.237 338.087 137.039 338.228 137.779 338.504C138.513 338.785 139.144 339.181 139.675 339.692C140.201 340.207 140.612 340.806 140.904 341.483C141.196 342.165 141.341 342.915 141.341 343.733C141.341 344.639 141.175 345.462 140.841 346.212C140.508 346.952 140.039 347.598 139.446 348.15C138.847 348.692 138.138 349.119 137.321 349.421C136.513 349.712 135.633 349.858 134.675 349.858ZM135.862 349.004C136.654 349.004 137.284 348.728 137.758 348.171C138.227 347.603 138.466 346.806 138.466 345.775C138.466 345.29 138.394 344.749 138.258 344.15C138.117 343.556 137.925 342.952 137.675 342.337C137.425 341.728 137.123 341.165 136.779 340.65C136.43 340.139 136.034 339.728 135.591 339.421C135.159 339.103 134.701 338.942 134.216 338.942C133.425 338.942 132.789 339.244 132.321 339.837C131.862 340.421 131.633 341.171 131.633 342.087C131.633 342.587 131.701 343.145 131.841 343.754C131.977 344.353 132.175 344.962 132.425 345.587C132.685 346.202 132.992 346.77 133.341 347.296C133.701 347.811 134.091 348.228 134.508 348.546C134.935 348.853 135.388 349.004 135.862 349.004Z" fill="#1DB954"/>
<path d="M153.909 338.317C153.909 338.317 153.915 338.369 153.93 338.462C153.956 338.546 153.956 338.645 153.93 338.754C153.899 338.853 153.826 338.931 153.701 338.983C153.602 339.014 153.498 339.061 153.389 339.129C153.29 339.202 153.18 339.332 153.055 339.525C152.941 339.707 152.811 339.994 152.659 340.379L149.534 348.421C149.503 348.535 149.514 348.639 149.555 348.733L149.597 348.796C149.649 348.895 149.659 348.973 149.618 349.025C149.576 349.067 149.534 349.098 149.493 349.108L147.451 349.796C147.326 349.837 147.212 349.843 147.118 349.817C147.034 349.785 146.962 349.692 146.909 349.525L143.326 340.379C143.17 339.994 143.034 339.707 142.909 339.525C142.784 339.332 142.665 339.202 142.555 339.129C142.441 339.061 142.326 339.014 142.201 338.983C142.076 338.931 141.998 338.853 141.972 338.754C141.941 338.645 141.936 338.546 141.951 338.462C141.962 338.369 141.977 338.317 141.993 338.317C142.076 338.332 142.191 338.348 142.347 338.358C142.498 338.358 142.623 338.358 142.722 338.358H145.972C146.149 338.358 146.368 338.358 146.618 338.358C146.878 338.348 147.087 338.332 147.243 338.317C147.269 338.317 147.29 338.369 147.305 338.462C147.331 338.546 147.316 338.645 147.264 338.754C147.222 338.853 147.081 338.931 146.847 338.983C146.649 339.014 146.477 339.061 146.326 339.129C146.186 339.202 146.102 339.332 146.076 339.525C146.061 339.707 146.128 339.994 146.284 340.379L149.014 347.462C149.055 347.577 149.102 347.598 149.159 347.525L151.93 340.379C152.081 339.994 152.144 339.707 152.118 339.525C152.102 339.332 152.024 339.202 151.889 339.129C151.748 339.061 151.576 339.014 151.368 338.983C151.144 338.931 151.003 338.853 150.951 338.754C150.894 338.645 150.878 338.546 150.909 338.462C150.951 338.369 150.977 338.317 150.993 338.317C151.144 338.332 151.347 338.348 151.597 338.358C151.847 338.358 152.061 338.358 152.243 338.358H153.243C153.326 338.358 153.43 338.358 153.555 338.358C153.691 338.348 153.811 338.332 153.909 338.317Z" fill="#1DB954"/>
<path d="M160.595 349.566H155.637C155.496 349.566 155.324 349.572 155.116 349.587C154.918 349.598 154.767 349.608 154.658 349.608C154.642 349.608 154.621 349.566 154.595 349.483C154.564 349.389 154.574 349.29 154.616 349.191C154.658 349.082 154.767 349.004 154.949 348.962C155.1 348.921 155.241 348.869 155.366 348.796C155.491 348.728 155.585 348.598 155.658 348.4C155.725 348.191 155.762 347.879 155.762 347.462V340.483C155.762 340.056 155.725 339.744 155.658 339.546C155.585 339.353 155.491 339.223 155.366 339.15C155.241 339.066 155.1 339.014 154.949 338.983C154.767 338.931 154.658 338.853 154.616 338.754C154.574 338.645 154.564 338.546 154.595 338.462C154.621 338.369 154.642 338.316 154.658 338.316C154.767 338.332 154.918 338.348 155.116 338.358C155.324 338.358 155.496 338.358 155.637 338.358H160.512C161.303 338.358 161.892 338.327 162.283 338.254C162.684 338.171 162.991 338.139 163.199 338.15C163.434 338.15 163.553 338.29 163.553 338.566C163.512 339.124 163.501 339.707 163.533 340.316C163.574 340.931 163.647 341.582 163.762 342.275C163.762 342.275 163.678 342.275 163.512 342.275C163.356 342.275 163.189 342.244 163.012 342.171C162.83 342.087 162.72 341.931 162.678 341.691C162.58 340.983 162.481 340.457 162.387 340.108C162.288 339.764 162.147 339.52 161.97 339.379C161.856 339.27 161.689 339.191 161.47 339.15C161.262 339.108 160.96 339.082 160.574 339.066C160.184 339.056 159.668 339.046 159.033 339.046C158.835 339.046 158.705 339.103 158.637 339.212C158.564 339.311 158.533 339.441 158.533 339.608V342.837C158.533 342.936 158.553 343.04 158.595 343.15C158.637 343.264 158.725 343.316 158.866 343.316C158.934 343.316 159.08 343.316 159.303 343.316C159.538 343.306 159.772 343.29 160.012 343.275C160.205 343.264 160.35 343.228 160.449 343.171C160.543 343.119 160.621 343.014 160.678 342.858C160.746 342.691 160.814 342.441 160.887 342.108C160.928 341.941 161.001 341.848 161.116 341.816C161.241 341.775 161.356 341.77 161.47 341.796C161.58 341.811 161.637 341.816 161.637 341.816C161.58 342.191 161.543 342.608 161.533 343.066C161.533 343.514 161.543 343.957 161.574 344.4C161.616 344.832 161.658 345.228 161.699 345.587C161.699 345.587 161.642 345.598 161.533 345.608C161.434 345.608 161.33 345.587 161.22 345.546C161.106 345.504 161.033 345.421 160.991 345.296C160.876 344.921 160.788 344.65 160.72 344.483C160.647 344.306 160.564 344.186 160.47 344.129C160.371 344.077 160.225 344.04 160.033 344.025C159.809 344.014 159.58 344.004 159.345 344.004C159.121 344.004 158.96 344.004 158.866 344.004C158.725 344.004 158.637 344.061 158.595 344.171C158.553 344.285 158.533 344.389 158.533 344.483V348.275C158.533 348.582 158.58 348.764 158.678 348.816C158.772 348.874 158.975 348.9 159.283 348.9C160.184 348.9 160.845 348.879 161.262 348.837C161.678 348.796 161.981 348.712 162.178 348.587C162.303 348.504 162.408 348.395 162.491 348.254C162.574 348.103 162.658 347.869 162.741 347.546C162.824 347.212 162.913 346.754 163.012 346.171C163.053 345.994 163.126 345.869 163.241 345.796C163.366 345.712 163.501 345.665 163.658 345.65C163.809 345.624 163.934 345.619 164.033 345.629C164.126 345.645 164.178 345.66 164.178 345.671C164.08 346.369 164.012 347.014 163.97 347.608C163.928 348.191 163.928 348.764 163.97 349.316C163.97 349.483 163.928 349.608 163.845 349.691C163.772 349.775 163.678 349.806 163.553 349.796C163.439 349.796 163.283 349.775 163.074 349.733C162.866 349.691 162.559 349.65 162.158 349.608C161.767 349.577 161.246 349.566 160.595 349.566Z" fill="#1DB954"/>
<path d="M173.605 345.046C173.98 346.061 174.376 346.889 174.793 347.525C175.209 348.15 175.605 348.645 175.98 349.004C176.366 349.369 176.694 349.639 176.959 349.837C176.928 349.962 176.845 350.077 176.709 350.192C176.584 350.301 176.361 350.348 176.043 350.337C175.303 350.212 174.564 349.884 173.814 349.358C173.074 348.832 172.381 348.15 171.73 347.317C171.09 346.483 170.522 345.556 170.022 344.525L169.647 344.442C169.605 344.389 169.59 344.327 169.605 344.254C169.631 344.186 169.709 344.145 169.834 344.129L170.355 344.108C171.173 344.025 171.751 343.785 172.084 343.379C172.428 342.962 172.605 342.353 172.605 341.546C172.605 340.645 172.387 339.983 171.959 339.567C171.527 339.15 170.97 338.936 170.293 338.921H169.73C169.532 338.921 169.397 338.962 169.314 339.046C169.23 339.129 169.189 339.29 169.189 339.525V347.462C169.189 347.879 169.22 348.192 169.293 348.4C169.376 348.598 169.48 348.728 169.605 348.796C169.73 348.869 169.866 348.921 170.022 348.962C170.199 349.004 170.314 349.082 170.355 349.192C170.397 349.29 170.402 349.389 170.376 349.483C170.361 349.567 170.345 349.608 170.334 349.608C170.209 349.608 170.043 349.598 169.834 349.587C169.637 349.572 169.47 349.567 169.334 349.567H166.293C166.152 349.567 165.98 349.572 165.772 349.587C165.574 349.598 165.423 349.608 165.314 349.608C165.298 349.608 165.277 349.567 165.251 349.483C165.22 349.389 165.23 349.29 165.272 349.192C165.314 349.082 165.423 349.004 165.605 348.962C165.756 348.921 165.897 348.869 166.022 348.796C166.147 348.728 166.241 348.598 166.314 348.4C166.381 348.192 166.418 347.879 166.418 347.462V340.483C166.418 340.056 166.381 339.744 166.314 339.546C166.241 339.353 166.147 339.223 166.022 339.15C165.897 339.067 165.756 339.014 165.605 338.983C165.423 338.931 165.314 338.853 165.272 338.754C165.23 338.645 165.215 338.546 165.23 338.462C165.256 338.379 165.277 338.337 165.293 338.337C165.418 338.337 165.574 338.348 165.772 338.358C165.98 338.358 166.152 338.358 166.293 338.358C166.97 338.358 167.689 338.348 168.439 338.317C169.189 338.275 169.944 338.254 170.709 338.254C174.053 338.254 175.73 339.327 175.73 341.462C175.73 342.421 175.381 343.165 174.689 343.692C174.006 344.207 173.043 344.499 171.793 344.567L171.73 344.629C171.965 344.629 172.199 344.639 172.439 344.65C172.673 344.665 172.923 344.681 173.189 344.692C173.324 344.692 173.418 344.723 173.459 344.775C173.512 344.832 173.564 344.921 173.605 345.046Z" fill="#1DB954"/>
<path d="M178.791 349.817C178.4 349.817 178.083 349.702 177.833 349.483C177.583 349.264 177.458 348.978 177.458 348.629C177.458 348.244 177.593 347.889 177.874 347.567C178.166 347.233 178.604 347.067 179.187 347.067C179.531 347.067 179.812 347.186 180.02 347.421C180.239 347.66 180.354 347.962 180.354 348.337C180.354 348.629 180.275 348.889 180.124 349.108C179.968 349.332 179.775 349.504 179.541 349.629C179.301 349.754 179.051 349.817 178.791 349.817Z" fill="#1DB954"/>
<path d="M186.709 349.566C186.568 349.566 186.396 349.572 186.188 349.587C185.99 349.598 185.834 349.608 185.709 349.608C185.693 349.608 185.672 349.566 185.646 349.483C185.631 349.389 185.646 349.29 185.688 349.191C185.73 349.082 185.839 349.004 186.021 348.962C186.172 348.921 186.313 348.869 186.438 348.796C186.563 348.728 186.657 348.598 186.73 348.4C186.797 348.191 186.834 347.879 186.834 347.462V340.483C186.834 340.056 186.797 339.744 186.73 339.546C186.657 339.353 186.563 339.223 186.438 339.15C186.313 339.066 186.172 339.014 186.021 338.983C185.839 338.931 185.73 338.853 185.688 338.754C185.646 338.645 185.631 338.546 185.646 338.462C185.672 338.379 185.693 338.337 185.709 338.337C185.834 338.337 185.99 338.348 186.188 338.358C186.396 338.358 186.568 338.358 186.709 338.358C187.001 338.358 187.344 338.353 187.751 338.337C188.152 338.327 188.563 338.311 188.98 338.296C189.396 338.285 189.782 338.27 190.146 338.254C190.521 338.244 190.823 338.233 191.063 338.233C192.105 338.233 192.938 338.358 193.563 338.608C194.188 338.858 194.646 339.181 194.938 339.566C195.23 339.941 195.376 340.348 195.376 340.775C195.376 342.332 194.402 343.223 192.459 343.441C193.594 343.499 194.521 343.764 195.23 344.233C195.938 344.691 196.292 345.395 196.292 346.337C196.292 347.41 195.855 348.233 194.98 348.816C194.105 349.389 192.818 349.671 191.126 349.671C190.36 349.671 189.605 349.655 188.855 349.629C188.105 349.598 187.386 349.577 186.709 349.566ZM190.167 343.233L190.667 343.191C191.219 343.098 191.636 342.91 191.917 342.629C192.209 342.337 192.355 341.848 192.355 341.15C192.355 340.624 192.271 340.202 192.105 339.879C191.948 339.561 191.751 339.327 191.501 339.171C191.251 339.02 190.985 338.941 190.709 338.941L190.084 338.921C189.876 338.921 189.74 338.973 189.688 339.066C189.631 339.165 189.605 339.337 189.605 339.587V348.337C189.605 348.603 189.636 348.785 189.709 348.879C189.792 348.962 189.959 349.004 190.209 349.004H190.751C191.167 349.004 191.547 348.921 191.896 348.754C192.24 348.577 192.521 348.296 192.73 347.921C192.938 347.535 193.042 347.04 193.042 346.441C193.042 345.566 192.855 344.931 192.48 344.525C192.115 344.108 191.49 343.895 190.605 343.879H190.063C190.047 343.879 190.021 343.837 189.98 343.754C189.948 343.66 189.943 343.561 189.959 343.462C189.969 343.353 190.042 343.275 190.167 343.233Z" fill="#1DB954"/>
<path d="M203.139 349.858C201.983 349.858 200.972 349.613 200.097 349.129C199.222 348.645 198.535 347.973 198.035 347.108C197.535 346.249 197.285 345.27 197.285 344.171C197.285 343.296 197.451 342.494 197.785 341.754C198.118 341.02 198.576 340.379 199.16 339.837C199.753 339.285 200.451 338.853 201.243 338.546C202.045 338.244 202.91 338.087 203.826 338.087C204.701 338.087 205.503 338.228 206.243 338.504C206.977 338.785 207.608 339.181 208.139 339.692C208.665 340.207 209.076 340.806 209.368 341.483C209.66 342.165 209.806 342.915 209.806 343.733C209.806 344.639 209.639 345.462 209.306 346.212C208.972 346.952 208.503 347.598 207.91 348.15C207.311 348.692 206.602 349.119 205.785 349.421C204.977 349.712 204.097 349.858 203.139 349.858ZM204.326 349.004C205.118 349.004 205.748 348.728 206.222 348.171C206.691 347.603 206.931 346.806 206.931 345.775C206.931 345.29 206.858 344.749 206.722 344.15C206.582 343.556 206.389 342.952 206.139 342.337C205.889 341.728 205.587 341.165 205.243 340.65C204.894 340.139 204.498 339.728 204.056 339.421C203.623 339.103 203.165 338.942 202.681 338.942C201.889 338.942 201.253 339.244 200.785 339.837C200.326 340.421 200.097 341.171 200.097 342.087C200.097 342.587 200.165 343.145 200.306 343.754C200.441 344.353 200.639 344.962 200.889 345.587C201.149 346.202 201.457 346.77 201.806 347.296C202.165 347.811 202.556 348.228 202.972 348.546C203.399 348.853 203.852 349.004 204.326 349.004Z" fill="#1DB954"/>
<path d="M216.707 349.858C215.551 349.858 214.54 349.613 213.665 349.129C212.79 348.645 212.103 347.973 211.603 347.108C211.103 346.249 210.853 345.27 210.853 344.171C210.853 343.296 211.019 342.494 211.353 341.754C211.686 341.02 212.144 340.379 212.728 339.837C213.322 339.285 214.019 338.853 214.811 338.546C215.613 338.244 216.478 338.087 217.394 338.087C218.269 338.087 219.072 338.228 219.811 338.504C220.545 338.785 221.176 339.181 221.707 339.692C222.233 340.207 222.644 340.806 222.936 341.483C223.228 342.165 223.374 342.915 223.374 343.733C223.374 344.639 223.207 345.462 222.874 346.212C222.54 346.952 222.072 347.598 221.478 348.15C220.879 348.692 220.17 349.119 219.353 349.421C218.545 349.712 217.665 349.858 216.707 349.858ZM217.894 349.004C218.686 349.004 219.316 348.728 219.79 348.171C220.259 347.603 220.499 346.806 220.499 345.775C220.499 345.29 220.426 344.749 220.29 344.15C220.15 343.556 219.957 342.952 219.707 342.337C219.457 341.728 219.155 341.165 218.811 340.65C218.462 340.139 218.066 339.728 217.624 339.421C217.191 339.103 216.733 338.942 216.249 338.942C215.457 338.942 214.822 339.244 214.353 339.837C213.894 340.421 213.665 341.171 213.665 342.087C213.665 342.587 213.733 343.145 213.874 343.754C214.009 344.353 214.207 344.962 214.457 345.587C214.717 346.202 215.025 346.77 215.374 347.296C215.733 347.811 216.124 348.228 216.54 348.546C216.967 348.853 217.42 349.004 217.894 349.004Z" fill="#1DB954"/>
<path d="M232.65 343.671C232.952 344.728 233.28 345.619 233.629 346.337C233.988 347.046 234.343 347.629 234.692 348.087C235.051 348.546 235.384 348.915 235.692 349.192C235.994 349.473 236.259 349.681 236.483 349.837C236.468 349.962 236.39 350.077 236.254 350.192C236.129 350.301 235.947 350.348 235.712 350.337C234.848 350.171 234.03 349.806 233.254 349.254C232.488 348.702 231.785 347.999 231.15 347.15C230.509 346.29 229.947 345.332 229.462 344.275L228.421 345.483V347.462C228.421 347.879 228.452 348.192 228.525 348.4C228.608 348.598 228.712 348.728 228.837 348.796C228.962 348.869 229.098 348.921 229.254 348.962C229.431 349.004 229.546 349.082 229.587 349.192C229.629 349.29 229.634 349.389 229.608 349.483C229.593 349.567 229.577 349.608 229.567 349.608C229.442 349.608 229.275 349.598 229.067 349.587C228.869 349.572 228.702 349.567 228.567 349.567H225.525C225.384 349.567 225.212 349.572 225.004 349.587C224.806 349.598 224.655 349.608 224.546 349.608C224.53 349.608 224.509 349.567 224.483 349.483C224.452 349.389 224.462 349.29 224.504 349.192C224.546 349.082 224.655 349.004 224.837 348.962C224.988 348.921 225.129 348.869 225.254 348.796C225.379 348.728 225.473 348.598 225.546 348.4C225.613 348.192 225.65 347.879 225.65 347.462V340.483C225.65 340.056 225.613 339.744 225.546 339.546C225.473 339.353 225.379 339.223 225.254 339.15C225.129 339.067 224.988 339.014 224.837 338.983C224.655 338.931 224.546 338.853 224.504 338.754C224.462 338.645 224.452 338.546 224.483 338.462C224.509 338.369 224.53 338.317 224.546 338.317C224.655 338.332 224.806 338.348 225.004 338.358C225.212 338.358 225.384 338.358 225.525 338.358H228.567C228.702 338.358 228.869 338.358 229.067 338.358C229.275 338.348 229.442 338.332 229.567 338.317C229.577 338.317 229.593 338.369 229.608 338.462C229.634 338.546 229.629 338.645 229.587 338.754C229.546 338.853 229.431 338.931 229.254 338.983C229.098 339.014 228.962 339.067 228.837 339.15C228.712 339.223 228.608 339.353 228.525 339.546C228.452 339.744 228.421 340.056 228.421 340.483V344.587L231.962 340.171C232.223 339.837 232.384 339.598 232.442 339.442C232.494 339.29 232.473 339.186 232.379 339.129C232.296 339.061 232.171 339.014 232.004 338.983C231.837 338.931 231.733 338.853 231.692 338.754C231.65 338.645 231.634 338.546 231.65 338.462C231.676 338.369 231.697 338.317 231.712 338.317C231.837 338.332 231.994 338.348 232.192 338.358C232.4 338.358 232.572 338.358 232.712 338.358H234.046C234.197 338.358 234.369 338.358 234.567 338.358C234.759 338.348 234.921 338.332 235.046 338.317C235.056 338.317 235.072 338.369 235.087 338.462C235.113 338.546 235.108 338.645 235.067 338.754C235.035 338.853 234.931 338.931 234.754 338.983C234.587 339.014 234.421 339.056 234.254 339.108C234.098 339.165 233.921 339.275 233.712 339.442C233.515 339.598 233.28 339.832 233.004 340.15L229.733 343.942C230.093 343.9 230.468 343.832 230.858 343.733C231.259 343.624 231.697 343.499 232.171 343.358C232.421 343.29 232.577 343.395 232.65 343.671Z" fill="#1DB954"/>
<path d="M238.103 349.817C237.712 349.817 237.395 349.702 237.145 349.483C236.895 349.264 236.77 348.978 236.77 348.629C236.77 348.244 236.905 347.889 237.186 347.567C237.478 347.233 237.916 347.067 238.499 347.067C238.843 347.067 239.124 347.186 239.332 347.421C239.551 347.66 239.666 347.962 239.666 348.337C239.666 348.629 239.587 348.889 239.436 349.108C239.28 349.332 239.087 349.504 238.853 349.629C238.614 349.754 238.364 349.817 238.103 349.817Z" fill="#1DB954"/>
<path d="M245.271 347.712L246.188 344.837C246.188 344.837 246.229 344.848 246.313 344.858C246.396 344.858 246.479 344.9 246.563 344.983C246.656 345.056 246.709 345.202 246.709 345.421C246.636 346.728 246.813 347.681 247.229 348.275C247.646 348.858 248.339 349.15 249.313 349.15C249.63 349.15 249.943 349.103 250.25 349.004C250.568 348.895 250.834 348.712 251.042 348.462C251.261 348.202 251.375 347.848 251.375 347.4C251.375 346.848 251.156 346.369 250.729 345.962C250.297 345.561 249.755 345.16 249.104 344.754C248.464 344.353 247.886 343.962 247.375 343.587C246.86 343.202 246.448 342.811 246.146 342.421C245.854 342.02 245.709 341.582 245.709 341.108C245.709 340.54 245.886 340.035 246.25 339.587C246.625 339.129 247.146 338.77 247.813 338.504C248.49 338.228 249.297 338.087 250.229 338.087C250.672 338.087 251.125 338.139 251.584 338.233C252.052 338.317 252.479 338.442 252.854 338.608C253.24 338.775 253.531 338.973 253.729 339.192C253.922 339.415 253.979 339.665 253.896 339.942L253.104 342.546C253.104 342.546 253.047 342.546 252.938 342.546C252.839 342.546 252.74 342.514 252.646 342.442C252.547 342.374 252.5 342.228 252.5 342.004C252.594 340.827 252.443 339.994 252.042 339.504C251.651 339.02 251.068 338.775 250.292 338.775C249.693 338.775 249.24 338.9 248.938 339.15C248.646 339.4 248.5 339.712 248.5 340.087C248.5 340.436 248.584 340.733 248.75 340.983C248.917 341.223 249.167 341.457 249.5 341.692C249.834 341.915 250.235 342.181 250.709 342.483C251.334 342.858 251.901 343.244 252.417 343.629C252.927 344.02 253.344 344.436 253.667 344.879C253.985 345.327 254.146 345.853 254.146 346.462C254.146 347.504 253.709 348.332 252.834 348.942C251.969 349.556 250.776 349.858 249.25 349.858C248.709 349.858 248.177 349.796 247.667 349.671C247.167 349.546 246.719 349.389 246.334 349.192C245.943 348.983 245.651 348.754 245.459 348.504C245.261 348.244 245.198 347.978 245.271 347.712Z" fill="#1DB954"/>
<path d="M267.335 348.962C267.512 349.004 267.626 349.082 267.668 349.192C267.71 349.29 267.715 349.389 267.689 349.483C267.673 349.567 267.658 349.608 267.647 349.608C267.522 349.608 267.361 349.598 267.168 349.587C266.97 349.572 266.798 349.567 266.647 349.567H263.605C263.465 349.567 263.293 349.572 263.085 349.587C262.887 349.598 262.736 349.608 262.626 349.608C262.611 349.608 262.59 349.567 262.564 349.483C262.533 349.389 262.543 349.29 262.585 349.192C262.626 349.082 262.736 349.004 262.918 348.962C263.085 348.921 263.22 348.869 263.335 348.796C263.46 348.728 263.553 348.598 263.626 348.4C263.71 348.192 263.751 347.879 263.751 347.462V344.483C263.736 344.275 263.626 344.171 263.418 344.171H259.522C259.298 344.171 259.189 344.275 259.189 344.483V347.462C259.189 347.879 259.22 348.192 259.293 348.4C259.376 348.598 259.48 348.728 259.605 348.796C259.73 348.869 259.866 348.921 260.022 348.962C260.199 349.004 260.314 349.082 260.355 349.192C260.397 349.29 260.402 349.389 260.376 349.483C260.361 349.567 260.345 349.608 260.335 349.608C260.21 349.608 260.043 349.598 259.835 349.587C259.637 349.572 259.47 349.567 259.335 349.567H256.293C256.152 349.567 255.98 349.572 255.772 349.587C255.574 349.598 255.423 349.608 255.314 349.608C255.298 349.608 255.277 349.567 255.251 349.483C255.22 349.389 255.23 349.29 255.272 349.192C255.314 349.082 255.423 349.004 255.605 348.962C255.757 348.921 255.897 348.869 256.022 348.796C256.147 348.728 256.241 348.598 256.314 348.4C256.382 348.192 256.418 347.879 256.418 347.462V340.483C256.418 340.056 256.382 339.744 256.314 339.546C256.241 339.353 256.147 339.223 256.022 339.15C255.897 339.067 255.757 339.014 255.605 338.983C255.423 338.931 255.314 338.853 255.272 338.754C255.23 338.645 255.22 338.546 255.251 338.462C255.277 338.369 255.298 338.317 255.314 338.317C255.423 338.332 255.574 338.348 255.772 338.358C255.98 338.358 256.152 338.358 256.293 338.358H259.335C259.47 338.358 259.637 338.358 259.835 338.358C260.043 338.348 260.21 338.332 260.335 338.317C260.345 338.317 260.361 338.369 260.376 338.462C260.402 338.546 260.397 338.645 260.355 338.754C260.314 338.853 260.199 338.931 260.022 338.983C259.866 339.014 259.73 339.067 259.605 339.15C259.48 339.223 259.376 339.353 259.293 339.546C259.22 339.744 259.189 340.056 259.189 340.483V343.192C259.189 343.4 259.298 343.504 259.522 343.504H263.418C263.626 343.504 263.736 343.4 263.751 343.192V340.483C263.751 340.056 263.71 339.744 263.626 339.546C263.553 339.353 263.46 339.223 263.335 339.15C263.22 339.067 263.085 339.014 262.918 338.983C262.736 338.931 262.626 338.853 262.585 338.754C262.543 338.645 262.533 338.546 262.564 338.462C262.59 338.369 262.611 338.317 262.626 338.317C262.736 338.332 262.887 338.348 263.085 338.358C263.293 338.358 263.465 338.358 263.605 338.358H266.647C266.798 338.358 266.97 338.358 267.168 338.358C267.361 338.348 267.522 338.332 267.647 338.317C267.658 338.317 267.673 338.369 267.689 338.462C267.715 338.546 267.71 338.645 267.668 338.754C267.626 338.853 267.512 338.931 267.335 338.983C267.194 339.014 267.053 339.067 266.918 339.15C266.793 339.223 266.689 339.353 266.605 339.546C266.533 339.744 266.501 340.056 266.501 340.483V347.462C266.501 347.879 266.533 348.192 266.605 348.4C266.689 348.598 266.793 348.728 266.918 348.796C267.053 348.869 267.194 348.921 267.335 348.962Z" fill="#1DB954"/>
<path d="M270.034 347.462V340.483C270.034 340.056 269.998 339.744 269.93 339.546C269.857 339.353 269.763 339.223 269.638 339.15C269.513 339.067 269.373 339.014 269.222 338.983C269.039 338.931 268.93 338.853 268.888 338.754C268.847 338.645 268.836 338.546 268.867 338.462C268.893 338.369 268.914 338.317 268.93 338.317C269.039 338.332 269.19 338.348 269.388 338.358C269.597 338.358 269.768 338.358 269.909 338.358H272.951C273.086 338.358 273.253 338.358 273.451 338.358C273.659 338.348 273.826 338.332 273.951 338.317C273.961 338.317 273.977 338.369 273.992 338.462C274.018 338.546 274.013 338.645 273.972 338.754C273.93 338.853 273.815 338.931 273.638 338.983C273.482 339.014 273.347 339.067 273.222 339.15C273.097 339.223 272.992 339.353 272.909 339.546C272.836 339.744 272.805 340.056 272.805 340.483V347.462C272.805 347.879 272.836 348.192 272.909 348.4C272.992 348.598 273.097 348.728 273.222 348.796C273.347 348.869 273.482 348.921 273.638 348.962C273.815 349.004 273.93 349.082 273.972 349.192C274.013 349.29 274.018 349.389 273.992 349.483C273.977 349.567 273.961 349.608 273.951 349.608C273.826 349.608 273.659 349.598 273.451 349.587C273.253 349.572 273.086 349.567 272.951 349.567H269.909C269.768 349.567 269.597 349.572 269.388 349.587C269.19 349.598 269.039 349.608 268.93 349.608C268.914 349.608 268.893 349.567 268.867 349.483C268.836 349.389 268.847 349.29 268.888 349.192C268.93 349.082 269.039 349.004 269.222 348.962C269.373 348.921 269.513 348.869 269.638 348.796C269.763 348.728 269.857 348.598 269.93 348.4C269.998 348.192 270.034 347.879 270.034 347.462Z" fill="#1DB954"/>
<path d="M286.655 338.316C286.666 338.316 286.681 338.369 286.697 338.462C286.723 338.546 286.718 338.645 286.676 338.754C286.645 338.853 286.541 338.931 286.364 338.983C286.197 339.014 286.051 339.066 285.926 339.15C285.801 339.223 285.697 339.353 285.614 339.546C285.541 339.744 285.51 340.056 285.51 340.483V349.462C285.51 349.478 285.478 349.504 285.426 349.546C285.369 349.587 285.286 349.608 285.176 349.608C285.01 349.619 284.869 349.561 284.76 349.421L277.239 340.337C277.197 340.296 277.155 340.275 277.114 340.275C277.072 340.275 277.051 340.311 277.051 340.379L277.03 347.462C277.03 347.879 277.062 348.191 277.135 348.4C277.218 348.608 277.322 348.749 277.447 348.816C277.572 348.889 277.707 348.941 277.864 348.983C278.041 349.025 278.155 349.103 278.197 349.212C278.239 349.311 278.244 349.4 278.218 349.483C278.202 349.566 278.187 349.608 278.176 349.608C278.051 349.608 277.885 349.598 277.676 349.587C277.478 349.587 277.306 349.587 277.155 349.587H276.197C276.056 349.587 275.885 349.587 275.676 349.587C275.478 349.598 275.327 349.608 275.218 349.608C275.202 349.608 275.181 349.566 275.155 349.483C275.124 349.4 275.135 349.311 275.176 349.212C275.218 349.103 275.327 349.025 275.51 348.983C275.661 348.941 275.801 348.889 275.926 348.816C276.051 348.749 276.145 348.608 276.218 348.4C276.301 348.191 276.343 347.879 276.343 347.462L276.385 339.629C276.244 339.379 276.098 339.223 275.947 339.15C275.806 339.066 275.661 339.004 275.51 338.962C275.343 338.91 275.239 338.832 275.197 338.733C275.166 338.624 275.161 338.525 275.176 338.441C275.202 338.348 275.218 338.296 275.218 338.296C275.343 338.311 275.494 338.327 275.676 338.337C275.869 338.353 276.03 338.358 276.155 338.358H278.78C278.947 338.358 279.077 338.389 279.176 338.441C279.286 338.483 279.369 338.546 279.426 338.629L284.614 345.129C284.666 345.186 284.718 345.212 284.76 345.212C284.812 345.212 284.843 345.181 284.843 345.108L284.822 340.483C284.822 340.056 284.786 339.744 284.718 339.546C284.645 339.353 284.551 339.223 284.426 339.15C284.301 339.066 284.155 339.014 283.989 338.983C283.822 338.931 283.718 338.853 283.676 338.754C283.635 338.645 283.619 338.546 283.635 338.462C283.661 338.369 283.681 338.316 283.697 338.316C283.822 338.332 283.978 338.348 284.176 338.358C284.385 338.358 284.556 338.358 284.697 338.358H285.655C285.806 338.358 285.978 338.358 286.176 338.358C286.369 338.348 286.53 338.332 286.655 338.316Z" fill="#1DB954"/>
<path d="M293.603 349.566H288.645C288.504 349.566 288.333 349.572 288.124 349.587C287.926 349.598 287.775 349.608 287.666 349.608C287.65 349.608 287.629 349.566 287.603 349.483C287.572 349.389 287.583 349.29 287.624 349.191C287.666 349.082 287.775 349.004 287.958 348.962C288.109 348.921 288.249 348.869 288.374 348.796C288.499 348.728 288.593 348.598 288.666 348.4C288.734 348.191 288.77 347.879 288.77 347.462V340.483C288.77 340.056 288.734 339.744 288.666 339.546C288.593 339.353 288.499 339.223 288.374 339.15C288.249 339.066 288.109 339.014 287.958 338.983C287.775 338.931 287.666 338.853 287.624 338.754C287.583 338.645 287.572 338.546 287.603 338.462C287.629 338.369 287.65 338.316 287.666 338.316C287.775 338.332 287.926 338.348 288.124 338.358C288.333 338.358 288.504 338.358 288.645 338.358H293.52C294.312 338.358 294.9 338.327 295.291 338.254C295.692 338.171 295.999 338.139 296.208 338.15C296.442 338.15 296.562 338.29 296.562 338.566C296.52 339.124 296.51 339.707 296.541 340.316C296.583 340.931 296.655 341.582 296.77 342.275C296.77 342.275 296.687 342.275 296.52 342.275C296.364 342.275 296.197 342.244 296.02 342.171C295.838 342.087 295.728 341.931 295.687 341.691C295.588 340.983 295.489 340.457 295.395 340.108C295.296 339.764 295.155 339.52 294.978 339.379C294.864 339.27 294.697 339.191 294.478 339.15C294.27 339.108 293.968 339.082 293.583 339.066C293.192 339.056 292.676 339.046 292.041 339.046C291.843 339.046 291.713 339.103 291.645 339.212C291.572 339.311 291.541 339.441 291.541 339.608V342.837C291.541 342.936 291.562 343.04 291.603 343.15C291.645 343.264 291.734 343.316 291.874 343.316C291.942 343.316 292.088 343.316 292.312 343.316C292.546 343.306 292.78 343.29 293.02 343.275C293.213 343.264 293.359 343.228 293.458 343.171C293.551 343.119 293.629 343.014 293.687 342.858C293.754 342.691 293.822 342.441 293.895 342.108C293.937 341.941 294.01 341.848 294.124 341.816C294.249 341.775 294.364 341.77 294.478 341.796C294.588 341.811 294.645 341.816 294.645 341.816C294.588 342.191 294.551 342.608 294.541 343.066C294.541 343.514 294.551 343.957 294.583 344.4C294.624 344.832 294.666 345.228 294.708 345.587C294.708 345.587 294.65 345.598 294.541 345.608C294.442 345.608 294.338 345.587 294.228 345.546C294.114 345.504 294.041 345.421 293.999 345.296C293.885 344.921 293.796 344.65 293.728 344.483C293.655 344.306 293.572 344.186 293.478 344.129C293.379 344.077 293.234 344.04 293.041 344.025C292.817 344.014 292.588 344.004 292.353 344.004C292.129 344.004 291.968 344.004 291.874 344.004C291.734 344.004 291.645 344.061 291.603 344.171C291.562 344.285 291.541 344.389 291.541 344.483V348.275C291.541 348.582 291.588 348.764 291.687 348.816C291.78 348.874 291.984 348.9 292.291 348.9C293.192 348.9 293.853 348.879 294.27 348.837C294.687 348.796 294.989 348.712 295.187 348.587C295.312 348.504 295.416 348.395 295.499 348.254C295.583 348.103 295.666 347.869 295.749 347.546C295.833 347.212 295.921 346.754 296.02 346.171C296.062 345.994 296.135 345.869 296.249 345.796C296.374 345.712 296.51 345.665 296.666 345.65C296.817 345.624 296.942 345.619 297.041 345.629C297.135 345.645 297.187 345.66 297.187 345.671C297.088 346.369 297.02 347.014 296.978 347.608C296.937 348.191 296.937 348.764 296.978 349.316C296.978 349.483 296.937 349.608 296.853 349.691C296.78 349.775 296.687 349.806 296.562 349.796C296.447 349.796 296.291 349.775 296.083 349.733C295.874 349.691 295.567 349.65 295.166 349.608C294.775 349.577 294.254 349.566 293.603 349.566Z" fill="#1DB954"/>
<path d="M299.655 349.817C299.265 349.817 298.947 349.702 298.697 349.483C298.447 349.264 298.322 348.978 298.322 348.629C298.322 348.244 298.457 347.889 298.739 347.567C299.03 347.233 299.468 347.067 300.051 347.067C300.395 347.067 300.676 347.186 300.884 347.421C301.103 347.66 301.218 347.962 301.218 348.337C301.218 348.629 301.14 348.889 300.989 349.108C300.832 349.332 300.64 349.504 300.405 349.629C300.166 349.754 299.916 349.817 299.655 349.817Z" fill="#1DB954"/>
</svg>
